<?xml version="1.0" encoding="utf-8"?>
<!-- Generator: Adobe Illustrator 26.1.0, SVG Export Plug-In . SVG Version: 6.00 Build 0)  -->
<svg version="1.1" id="Layer_1" xmlns="http://www.w3.org/2000/svg" xmlns:xlink="http://www.w3.org/1999/xlink" x="0px" y="0px"
	 viewBox="0 0 1200 542" style="enable-background:new 0 0 1200 542;" xml:space="preserve">
<style type="text/css">
	.st0{fill:#1978F0;}
</style>
<g>
	<path class="st0" d="M571.9,172.6c0,17.6-14.2,31.8-31.8,31.8s-31.8-14.2-31.8-31.8s14.2-31.8,31.8-31.8S571.9,155.1,571.9,172.6z"
		/>
	<path class="st0" d="M222,395.7h43.2c2.4,0,4.3-2,4.3-4.3v-96.5h88.7c2.4,0,4.3-2,4.3-4.3v-37.2c0-2.4-2-4.3-4.3-4.3h-88.7V187
		h88.7c2.4,0,4.3-2,4.3-4.3v-33.6c0-2.4-2-4.3-4.3-4.3H222c-2.4,0-4.3,2-4.3,4.3v242.5C217.7,393.8,219.7,395.7,222,395.7"/>
	<path class="st0" d="M414.2,395.7h43.6c2.4,0,4.3-2,4.3-4.3V148.9c0-2.4-2-4.3-4.3-4.3h-43.6c-2.4,0-4.3,2-4.3,4.3v242.5
		C409.9,393.8,411.8,395.7,414.2,395.7z"/>
	<path class="st0" d="M518.2,395.7h43.6c2.4,0,4.3-2,4.3-4.3V231.8c0-2.4-2-4.3-4.3-4.3h-43.6c-2.4,0-4.3,2-4.3,4.3v159.6
		C513.9,393.8,515.9,395.7,518.2,395.7"/>
	<path class="st0" d="M950.9,189.9c-57.8,0-104.6,46.8-104.6,104.6s46.8,104.6,104.6,104.6s104.6-46.8,104.6-104.6
		S1008.6,189.9,950.9,189.9L950.9,189.9z M950.9,350.7c-31,0-56.2-25.2-56.2-56.2s25.2-56.2,56.2-56.2s56.2,25.2,56.2,56.2
		S981.9,350.7,950.9,350.7z"/>
	<path class="st0" d="M615.1,148.9c0-2.4,2-4.3,4.3-4.3h41.9c2.4,0,4.3,2,4.3,4.4v46h33.9c2.4,0,4.3,2,4.3,4.3v35.1
		c0,2.4-2,4.3-4.3,4.3h-33.9V319c0,32,6.7,36,26.6,36c6.1,0,11.2-0.6,15.3-1.4c2.7-0.5,5.7,1.3,5.8,4c0.2,7.7-0.1,23.8,0,31.7
		c0,3.5-2.3,6.5-5.6,7.3c-7.2,1.8-15.1,2.4-31.8,2.4c-19,0-35-6.3-44.7-16.9c-11-11.8-16-30.4-16-57.3L615.1,148.9L615.1,148.9z"/>
	<path class="st0" d="M737.9,148.8c0-2.4,2-4.3,4.3-4.3h41.9c2.4,0,4.3,2,4.3,4.3v46.1h33.9c2.4,0,4.3,2,4.3,4.3v35.1
		c0,2.4-2,4.3-4.3,4.3h-33.9v80.3c0,32,6.7,36,26.6,36c6.1,0,11.2-0.6,15.3-1.4c2.7-0.5,5.7,1.3,5.8,4c0.2,7.7-0.1,23.8,0,31.7
		c0,3.5-2.3,6.5-5.6,7.3c-7.2,1.8-15.1,2.4-31.8,2.4c-19,0-35-6.3-44.7-16.9c-11-11.8-16-30.4-16-57.3v-176L737.9,148.8z"/>
</g>
</svg>
