<?xml version="1.0" encoding="utf-8"?>
<!-- Generator: Adobe Illustrator 26.1.0, SVG Export Plug-In . SVG Version: 6.00 Build 0)  -->
<svg version="1.1" id="Layer_1" xmlns="http://www.w3.org/2000/svg" xmlns:xlink="http://www.w3.org/1999/xlink" x="0px" y="0px"
	 viewBox="0 0 1600 575" style="enable-background:new 0 0 1600 575;" xml:space="preserve">
<style type="text/css">
	.st0{fill:#EFEFEF;}
	.st1{fill:#FFFFFF;}
	.st2{fill:#1978F0;}
</style>
<g id="bg">
	<rect y="0" class="st0" width="1600" height="575"/>
</g>
<g>
	<g>
		<path class="st1" d="M894.4,183.4c0,18.6-15.1,33.7-33.7,33.7c-18.6,0-33.7-15.1-33.7-33.7s15.1-33.7,33.7-33.7
			C879.3,149.7,894.4,164.8,894.4,183.4z"/>
		<path class="st1" d="M523.3,420h45.8c2.6,0,4.6-2.1,4.6-4.6V313h94.1c2.6,0,4.6-2.1,4.6-4.6V269c0-2.6-2.1-4.6-4.6-4.6h-94.1
			v-65.9h94.1c2.6,0,4.6-2.1,4.6-4.6v-35.7c0-2.6-2.1-4.6-4.6-4.6H523.3c-2.6,0-4.6,2.1-4.6,4.6v257.2
			C518.7,418,520.8,420,523.3,420"/>
		<path class="st1" d="M727.1,420h46.2c2.6,0,4.6-2.1,4.6-4.6V158.2c0-2.6-2.1-4.6-4.6-4.6h-46.2c-2.6,0-4.6,2.1-4.6,4.6v257.2
			C722.5,418,724.6,420,727.1,420z"/>
		<path class="st1" d="M837.4,420h46.2c2.6,0,4.6-2.1,4.6-4.6V246.2c0-2.6-2.1-4.6-4.6-4.6h-46.2c-2.6,0-4.6,2.1-4.6,4.6v169.2
			C832.8,418,834.9,420,837.4,420"/>
		<path class="st1" d="M1296.2,201.7c-61.2,0-110.9,49.7-110.9,110.9s49.7,110.9,110.9,110.9s110.9-49.7,110.9-110.9
			S1357.4,201.7,1296.2,201.7L1296.2,201.7z M1296.2,372.3c-32.9,0-59.6-26.7-59.6-59.6s26.7-59.6,59.6-59.6s59.6,26.7,59.6,59.6
			S1329.1,372.3,1296.2,372.3z"/>
		<path class="st1" d="M940.2,158.2c0-2.6,2.1-4.6,4.6-4.6h44.4c2.6,0,4.6,2.1,4.6,4.6v48.9h35.9c2.6,0,4.6,2.1,4.6,4.6v37.2
			c0,2.6-2.1,4.6-4.6,4.6h-35.9v85.1c0,33.9,7.1,38.2,28.2,38.2c6.4,0,11.8-0.6,16.2-1.4c2.8-0.5,6,1.4,6.1,4.2
			c0.2,8.2-0.1,25.2,0,33.6c0,3.7-2.4,6.8-6,7.8c-7.6,1.9-16,2.6-33.7,2.6c-20.1,0-37.1-6.7-47.4-17.9c-11.6-12.5-17-32.2-17-60.8
			L940.2,158.2L940.2,158.2z"/>
		<path class="st1" d="M1070.3,158.2c0-2.6,2.1-4.6,4.6-4.6h44.5c2.5,0,4.6,2.1,4.6,4.6v48.9h35.9c2.5,0,4.6,2.1,4.6,4.6v37.2
			c0,2.6-2.1,4.6-4.6,4.6H1124v85.1c0,33.9,7.1,38.2,28.2,38.2c6.4,0,11.8-0.6,16.2-1.4c2.8-0.5,6,1.4,6.1,4.2
			c0.2,8.2-0.1,25.2,0,33.6c0,3.7-2.4,6.8-6,7.8c-7.6,1.9-16,2.6-33.7,2.6c-20.1,0-37.1-6.7-47.4-17.9c-11.6-12.5-17-32.2-17-60.8
			L1070.3,158.2L1070.3,158.2z"/>
	</g>
	<g>
		<path class="st2" d="M380,259.9c0,0.6-0.1,1.2-0.4,1.8c0,0.1-0.1,0.1-0.1,0.2L368,286.8l0,0c-2,4.8-4.7,9.3-8.1,13.2
			c-1.7,2-3.5,3.9-5.5,5.6c-8.8,7.7-20.4,12.5-33.1,12.5h-35.9c-16.8-0.6-30.2-14.4-30.2-31.4c0-11.5,6.2-21.6,15.4-27.1
			c4.7-2.8,10.2-4.4,16-4.4h89.1C378.1,255.6,379.9,257.6,380,259.9"/>
		<path class="st2" d="M426.5,158.2c0,0.6-0.1,1.2-0.4,1.8c0,0.1-0.1,0.1-0.1,0.2c-4.6,9.9-12.7,27.5-12.7,27.5
			c-4.2,8.7-10.8,16-18.9,21.1c-7,4.4-15.1,7.1-23.9,7.6h-84.1c-27.5,0-51.4,15.8-62.9,38.9c-4.7,9.5-7.4,20.1-7.4,31.4
			s2.7,22,7.4,31.4c11.5,23.1,35.4,38.9,62.9,38.9c17.4,0,31.4,14.1,31.4,31.4c0,4.3-0.9,8.5-2.5,12.2v0.1l-0.1,0.1l-0.7,1.4
			c-5.1,10.4-15.8,17.6-28.2,17.6c-62.7,0-115.3-43.4-129.5-101.7c-2.4-10.1-3.7-20.6-3.7-31.4s1.3-21.4,3.7-31.4
			c3.4-14,9-27.1,16.3-38.9c23.2-37.3,64.4-62.2,111.4-62.8h137.2C424.5,153.6,426.5,155.6,426.5,158.2"/>
	</g>
</g>
</svg>
