<svg width="30" height="30" viewBox="0 0 30 30" fill="none" xmlns="http://www.w3.org/2000/svg">
<path d="M24.8717 11.9783C24.8717 12.0454 24.8599 12.1186 24.8302 12.1796V12.204L23.5852 15.0033C23.3659 15.5461 23.0694 16.0523 22.7019 16.4975C22.5181 16.7232 22.3165 16.9305 22.0972 17.1257C21.0893 18.0283 19.8028 18.5345 18.4689 18.5406H14.5264C14.0758 18.5345 13.6253 18.4308 13.2103 18.2418C12.7953 18.0527 12.4218 17.7844 12.1076 17.4489C11.4732 16.772 11.1294 15.8632 11.1471 14.924C11.1649 13.9848 11.5444 13.0944 12.2024 12.4418C12.8605 11.7892 13.7438 11.4355 14.6628 11.4538H24.3974C24.5219 11.466 24.6405 11.527 24.7235 11.6185C24.8065 11.7161 24.8539 11.838 24.8599 11.9661" fill="#BCBCBC"/>
<path d="M29.9822 0.512299C29.9822 0.579386 29.9704 0.652571 29.9407 0.713559C29.9407 0.719657 29.9407 0.731856 29.9407 0.737955L28.5475 3.84224C28.0851 4.81805 27.3677 5.64139 26.4725 6.22078C25.684 6.72698 24.7829 7.02582 23.8521 7.08071H14.6036C12.5879 7.1295 10.667 7.98333 9.26195 9.46534C7.85096 10.9473 7.06246 12.9356 7.06246 15.0091C7.06246 17.0827 7.85096 19.0709 9.26195 20.553C10.6729 22.035 12.5879 22.8888 14.6036 22.9376C15.1727 22.9376 15.73 23.084 16.2339 23.3584C16.7378 23.6329 17.1647 24.0354 17.4789 24.5233C17.7931 25.0112 17.9888 25.5723 18.0421 26.1517C18.0955 26.731 18.0066 27.3226 17.7872 27.8593L17.7161 28.0179C17.4315 28.6156 16.9928 29.1157 16.4414 29.4633C15.896 29.8109 15.2616 30 14.6154 30C11.3369 30 8.15924 28.8717 5.58033 26.792C3.00734 24.7123 1.18135 21.8032 0.410636 18.5343C-0.0458619 16.6009 -0.122932 14.5883 0.185352 12.6245C0.493636 10.6607 1.17542 8.77617 2.20106 7.0868C3.49941 4.94613 5.30168 3.17138 7.43596 1.93332C9.57024 0.695262 11.9832 0.030494 14.4376 0H29.4961C29.6265 0 29.7569 0.0548892 29.8518 0.15247C29.9466 0.250051 30 0.378126 30 0.518398" fill="#BCBCBC"/>
</svg>
