<?xml version="1.0" encoding="utf-8"?>
<!-- Generator: Adobe Illustrator 26.1.0, SVG Export Plug-In . SVG Version: 6.00 Build 0)  -->
<svg version="1.1" xmlns="http://www.w3.org/2000/svg" xmlns:xlink="http://www.w3.org/1999/xlink" x="0px" y="0px"
	 viewBox="0 0 1200 1130" style="enable-background:new 0 0 1200 1130;" xml:space="preserve">
<style type="text/css">
	.st0{fill:#EFEFEF;}
	.st1{fill:#FFFFFF;}
</style>
<g id="bg">
	<rect class="st0" width="1200" height="1130"/>
</g>
<g id="Logo_x5F_vertical">
	<g>
		<g>
			<path class="st1" d="M733.9,349.7c0,0.8-0.2,1.5-0.5,2.2l-0.1,0.3l-14.1,30.3h-0.1c-2.4,5.9-5.8,11.3-9.9,16.2
				c-2,2.4-4.3,4.7-6.7,6.8c-10.9,9.4-25.1,15.2-40.7,15.3h-44.2c-20.6-0.8-37.2-17.6-37.2-38.2c0-14,7.6-26.3,19-32.9
				c5.8-3.4,12.5-5.4,19.7-5.4h109.6C731.6,344.5,733.9,346.9,733.9,349.7L733.9,349.7z"/>
			<path class="st1" d="M791.2,225.8c0,0.8-0.2,1.5-0.5,2.2c0,0.1-0.1,0.2-0.1,0.3c-5.6,12-15.5,33.5-15.6,33.6
				c-5.1,10.6-13.2,19.5-23.2,25.7c-8.6,5.4-18.6,8.7-29.4,9.3H619c-33.9,0-63.2,19.3-77.4,47.4c-5.8,11.5-9.1,24.5-9.1,38.3
				s3.3,26.8,9.1,38.3c14.2,28.1,43.5,47.4,77.4,47.4c21.4,0,38.6,17.1,38.6,38.3c0,5.3-1.1,10.3-3.1,14.9v0.2l-0.9,1.7
				c-6.3,12.7-19.5,21.5-34.7,21.5c-77.2,0-141.8-52.8-159.2-123.9c-3-12.3-4.6-25.1-4.6-38.3c0-13.2,1.6-26,4.6-38.3
				c4.1-17,11-33,20.1-47.4c28.5-45.4,79.1-75.8,137-76.5h168.7C788.7,220.3,791.2,222.8,791.2,225.8z"/>
		</g>
		<g>
			<path class="st1" d="M537.4,723.9c17.5,0,31.6-14.2,31.6-31.6s-14.2-31.6-31.6-31.6s-31.6,14.2-31.6,31.6
				S519.9,723.9,537.4,723.9z"/>
			<path class="st1" d="M220.7,913.8h43c2.4,0,4.3-1.9,4.3-4.3V814h88.3c2.4,0,4.3-1.9,4.3-4.3v-37.1c0-2.4-1.9-4.3-4.3-4.3H268
				v-59.9h88.3c2.4,0,4.3-1.9,4.3-4.3v-33.7c0-2.4-1.9-4.3-4.3-4.3H220.7c-2.4,0-4.3,1.9-4.3,4.3v239.2
				C216.4,911.8,218.3,913.8,220.7,913.8z"/>
			<path class="st1" d="M455.4,664.2H412c-2.4,0-4.3,1.9-4.3,4.3v241c0,2.4,1.9,4.3,4.3,4.3h43.4c2.4,0,4.3-1.9,4.3-4.3v-241
				C459.7,666.1,457.8,664.2,455.4,664.2z"/>
			<path class="st1" d="M558.9,746.9h-43.4c-2.4,0-4.3,1.9-4.3,4.3V910c0,2.4,1.9,4.3,4.3,4.3h43.4c2.4,0,4.3-1.9,4.3-4.3V751.2
				C563.3,748.8,561.3,746.9,558.9,746.9z"/>
			<path class="st1" d="M946.3,712.5c-57.5,0-104.1,46.6-104.1,104.2c0,57.5,46.6,104.2,104.1,104.2s104.1-46.6,104.1-104.2
				S1003.8,712.5,946.3,712.5L946.3,712.5z M946.3,872.6c-30.9,0-56-25.1-56-56s25.1-56,56-56s56,25.1,56,56
				C1002.3,847.6,977.2,872.6,946.3,872.6z"/>
			<path class="st1" d="M612,668c0-2.4,1.9-4.3,4.3-4.3H658c2.4,0,4.3,1.9,4.3,4.3v46.5H696c2.4,0,4.3,1.9,4.3,4.3v35
				c0,2.4-1.9,4.3-4.3,4.3h-33.7v79.2c0,31.9,6.7,35.9,26.5,35.9c6.1,0,11.1-0.6,15.2-1.4c2.7-0.5,5.7,1.3,5.7,4
				c0.2,7.7-0.1,23.6,0,31.5c0,3.4-2.3,6.4-5.6,7.3c-7.1,1.8-15,2.4-31.6,2.4c-18.9,0-34.8-6.3-44.5-16.8
				c-10.9-11.8-16-30.2-16-57.1L612,668L612,668z"/>
			<path class="st1" d="M734.3,668c0-2.4,1.9-4.3,4.3-4.3h41.7c2.4,0,4.3,1.9,4.3,4.3v46.5h33.7c2.4,0,4.3,1.9,4.3,4.3v35
				c0,2.4-1.9,4.3-4.3,4.3h-33.7v79.2c0,31.9,6.7,35.9,26.5,35.9c6.1,0,11.1-0.6,15.2-1.4c2.6-0.5,5.7,1.3,5.7,4
				c0.2,7.7-0.1,23.6,0,31.5c0,3.4-2.3,6.4-5.6,7.3c-7.1,1.8-15,2.4-31.6,2.4c-18.9,0-34.8-6.3-44.5-16.8
				c-10.9-11.8-16-30.2-16-57.1L734.3,668L734.3,668z"/>
		</g>
	</g>
</g>
</svg>
