<?xml version="1.0" encoding="utf-8"?>
<!-- Generator: Adobe Illustrator 26.1.0, SVG Export Plug-In . SVG Version: 6.00 Build 0)  -->
<svg version="1.1" id="Layer_1" xmlns="http://www.w3.org/2000/svg" xmlns:xlink="http://www.w3.org/1999/xlink" x="0px" y="0px"
	 viewBox="0 0 1600 628" style="enable-background:new 0 0 1600 628;" xml:space="preserve">
<style type="text/css">
	.st0{fill:#1978F0;}
	.st1{fill:#FFFFFF;}
	.st2{fill:#001432;}
</style>
<g>
	<g>
		<path class="st0" d="M403.5,479.2H218.9c-40.3,0-73-32.7-73-73V221.7c0-40.3,32.7-73,73-73h184.5c40.3,0,73,32.7,73,73v184.5
			C476.4,446.5,443.7,479.2,403.5,479.2z"/>
		<path class="st1" d="M377.5,295.3c0,0.5-0.1,0.9-0.3,1.3c0,0.1,0,0.1-0.1,0.1l-8.4,18.1c-1.5,3.5-3.5,6.8-5.9,9.7
			c-1.2,1.5-2.6,2.8-4,4.1c-6.5,5.7-15.1,9.1-24.4,9.2h-26.5c-12.4-0.5-22.3-10.5-22.3-22.9c0-8.4,4.6-15.8,11.3-19.7
			c3.5-2,7.5-3.2,11.8-3.2h65.7C376.2,292.1,377.5,293.5,377.5,295.3"/>
		<path class="st1" d="M411.9,220.9c0,0.5-0.1,0.9-0.3,1.3c0,0,0,0.1-0.1,0.1c-3.4,7.2-9.3,20.1-9.3,20.1c-3.1,6.3-8,11.7-13.9,15.4
			c-5.1,3.2-11.2,5.2-17.6,5.6h-62c-20.3,0-37.9,11.6-46.4,28.4c-3.5,6.9-5.4,14.7-5.4,22.9s2,16.1,5.4,22.9
			c8.5,16.9,26.1,28.4,46.4,28.4c12.8,0,23.2,10.3,23.2,22.9c0,3.2-0.7,6.2-1.8,8.9v0.1l-0.5,1.1c-3.8,7.6-11.7,12.9-20.8,12.9
			c-46.3,0-85-31.7-95.4-74.3c-1.8-7.4-2.7-15-2.7-22.9s0.9-15.6,2.7-22.9c2.5-10.2,6.6-19.7,12-28.4c17.1-27.2,47.5-45.5,82.1-45.9
			h101.1C410.4,217.6,412,219.1,411.9,220.9"/>
	</g>
	<g>
		<path class="st2" d="M955.7,215.3c0,18-14.6,32.5-32.5,32.5c-18,0-32.5-14.6-32.5-32.5s14.6-32.5,32.5-32.5
			C941.1,182.8,955.7,197.3,955.7,215.3z"/>
		<path class="st2" d="M597.5,443.7h44.2c2.5,0,4.4-2,4.4-4.4v-98.8h90.8c2.5,0,4.4-2,4.4-4.4V298c0-2.5-2-4.4-4.4-4.4h-90.8V230
			h90.8c2.5,0,4.4-2,4.4-4.4V191c0-2.5-2-4.4-4.4-4.4H597.5c-2.5,0-4.4,2-4.4,4.4v248.3C593.1,441.7,595.1,443.7,597.5,443.7z"/>
		<path class="st2" d="M794.2,443.7h44.6c2.5,0,4.4-2,4.4-4.4V191c0-2.5-2-4.4-4.4-4.4h-44.6c-2.5,0-4.4,2-4.4,4.4v248.3
			C789.8,441.7,791.8,443.7,794.2,443.7z"/>
		<path class="st2" d="M900.7,443.7h44.6c2.5,0,4.4-2,4.4-4.4V275.9c0-2.5-2-4.4-4.4-4.4h-44.6c-2.5,0-4.4,2-4.4,4.4v163.3
			C896.2,441.7,898.2,443.7,900.7,443.7"/>
		<path class="st2" d="M1343.6,233c-59.1,0-107.1,47.9-107.1,107.1c0,59.1,48,107.1,107.1,107.1s107.1-47.9,107.1-107.1
			C1450.6,280.9,1402.7,233,1343.6,233L1343.6,233z M1343.6,397.6c-31.8,0-57.5-25.8-57.5-57.5c0-31.8,25.8-57.5,57.5-57.5
			s57.5,25.8,57.5,57.5S1375.3,397.6,1343.6,397.6z"/>
		<path class="st2" d="M999.9,191c0-2.5,2-4.4,4.4-4.4h42.9c2.5,0,4.4,2,4.4,4.5v47.2h34.7c2.5,0,4.4,2,4.4,4.4v35.9
			c0,2.5-2,4.4-4.4,4.4h-34.7v82.2c0,32.8,6.9,36.9,27.2,36.9c6.2,0,11.4-0.6,15.6-1.4c2.7-0.5,5.8,1.4,5.9,4.1
			c0.2,7.9-0.1,24.3,0,32.4c0,3.5-2.4,6.6-5.8,7.5c-7.4,1.9-15.4,2.5-32.5,2.5c-19.4,0-35.8-6.5-45.7-17.3
			c-11.2-12.1-16.4-31.1-16.4-58.7L999.9,191L999.9,191z"/>
		<path class="st2" d="M1125.6,190.9c0-2.5,2-4.4,4.4-4.4h42.9c2.5,0,4.4,2,4.4,4.4v47.2h34.7c2.5,0,4.4,2,4.4,4.4v35.9
			c0,2.5-2,4.4-4.4,4.4h-34.7V365c0,32.8,6.9,36.9,27.2,36.9c6.2,0,11.4-0.6,15.6-1.4c2.7-0.5,5.8,1.4,5.9,4.1
			c0.2,7.9-0.1,24.3,0,32.4c0,3.5-2.4,6.6-5.8,7.5c-7.4,1.9-15.4,2.5-32.6,2.5c-19.4,0-35.8-6.5-45.7-17.3
			c-11.2-12.1-16.4-31.1-16.4-58.7L1125.6,190.9L1125.6,190.9z"/>
	</g>
</g>
</svg>
