<svg width="13" height="13" viewBox="0 0 13 13" fill="none" xmlns="http://www.w3.org/2000/svg">
<path d="M10.488 4.98977C10.488 5.01772 10.483 5.04821 10.4705 5.07361V5.08378L9.94547 6.24994C9.85297 6.47605 9.72797 6.68693 9.57297 6.8724C9.49547 6.9664 9.41047 7.05278 9.31797 7.13408C8.89297 7.5101 8.35047 7.72097 7.78797 7.72351H6.12547C5.93547 7.72097 5.74547 7.67778 5.57047 7.59902C5.39547 7.52026 5.23797 7.40847 5.10547 7.26874C4.83797 6.98673 4.69297 6.60817 4.70047 6.21691C4.70797 5.82565 4.86797 5.45471 5.14547 5.18286C5.42297 4.91101 5.79547 4.76366 6.18297 4.77128H10.288C10.3405 4.77636 10.3905 4.80177 10.4255 4.83988C10.4605 4.88053 10.4805 4.93134 10.483 4.98469" fill="#1978F0"/>
<path d="M12.6432 0.213414C12.6432 0.241362 12.6382 0.271849 12.6257 0.297256C12.6257 0.299796 12.6257 0.304878 12.6257 0.307419L12.0382 1.60061C11.8432 2.00711 11.5407 2.3501 11.1632 2.59146C10.8307 2.80234 10.4507 2.92683 10.0582 2.9497H6.15816C5.30816 2.97002 4.49816 3.32571 3.90566 3.94309C3.31066 4.56047 2.97816 5.38872 2.97816 6.25254C2.97816 7.11636 3.31066 7.94461 3.90566 8.56199C4.50066 9.17937 5.30816 9.53506 6.15816 9.55539C6.39816 9.55539 6.63316 9.61636 6.84566 9.73069C7.05816 9.84502 7.23816 10.0127 7.37066 10.216C7.50316 10.4192 7.58566 10.6529 7.60816 10.8943C7.63066 11.1357 7.59316 11.3821 7.50066 11.6057L7.47066 11.6717C7.35066 11.9207 7.16566 12.1291 6.93316 12.2739C6.70316 12.4187 6.43566 12.4975 6.16316 12.4975C4.78066 12.4975 3.44066 12.0274 2.35316 11.1611C1.26816 10.2947 0.498161 9.08282 0.173161 7.72104C-0.0193395 6.91565 -0.0518392 6.07724 0.0781609 5.25915C0.208161 4.44106 0.495661 3.656 0.928161 2.95224C1.47566 2.06047 2.23566 1.32114 3.13566 0.805386C4.03566 0.289634 5.05316 0.0127033 6.08816 0H12.4382C12.4932 0 12.5482 0.0228659 12.5882 0.0635163C12.6282 0.104167 12.6507 0.15752 12.6507 0.215955" fill="#1978F0"/>
</svg>
