<?xml version="1.0" encoding="utf-8"?>
<!-- Generator: Adobe Illustrator 26.1.0, SVG Export Plug-In . SVG Version: 6.00 Build 0)  -->
<svg version="1.1" xmlns="http://www.w3.org/2000/svg" xmlns:xlink="http://www.w3.org/1999/xlink" x="0px" y="0px"
	 viewBox="0 0 1000 984" style="enable-background:new 0 0 1000 984;" xml:space="preserve">
<style type="text/css">
	.st0{fill:#EFEFEF;}
	.st1{fill:#FFFFFF;}
</style>
<g id="bg">
	<rect class="st0" width="1000" height="984"/>
</g>
<g id="symbol">
	<g>
		<path class="st1" d="M666,443c0,1.1-0.2,2.3-0.7,3.3v0.4l-21,45.9c-3.7,8.9-8.7,17.2-14.9,24.5c-3.1,3.7-6.5,7.1-10.2,10.3
			c-17,14.8-38.7,23.1-61.2,23.2h-66.5c-7.6-0.1-15.2-1.8-22.2-4.9c-7-3.1-13.3-7.5-18.6-13c-10.7-11.1-16.5-26-16.2-41.4
			s6.7-30,17.8-40.7c11.1-10.7,26-16.5,41.5-16.2H658c2.1,0.2,4.1,1.2,5.5,2.7c1.4,1.6,2.2,3.6,2.3,5.7"/>
		<path class="st1" d="M752.2,255c0,1.1-0.2,2.3-0.7,3.3c0,0.1,0,0.3,0,0.4L728,309.6c-7.8,16-19.9,29.5-35,39
			c-13.3,8.3-28.5,13.2-44.2,14.1h-156c-34,0.8-66.4,14.8-90.1,39.1c-23.8,24.3-37.1,56.9-37.1,90.9c0,34,13.3,66.6,37.1,90.9
			c23.8,24.3,56.1,38.3,90.1,39.1c9.6,0,19,2.4,27.5,6.9s15.7,11.1,21,19.1s8.6,17.2,9.5,26.7s-0.6,19.2-4.3,28l0,0l-1.2,2.6
			c-4.8,9.8-12.2,18-21.5,23.7c-9.2,5.7-19.9,8.8-30.8,8.8c-55.3,0-108.9-18.5-152.4-52.6c-43.4-34.1-74.2-81.8-87.2-135.4
			c-7.7-31.7-9-64.7-3.8-96.9s16.7-63.1,34-90.8c21.9-35.1,52.3-64.2,88.3-84.5s76.7-31.2,118.1-31.7h254c2.2,0,4.4,0.9,6,2.5
			s2.5,3.7,2.5,6"/>
	</g>
</g>
</svg>
