<svg width="30" height="30" viewBox="0 0 30 30" fill="none" xmlns="http://www.w3.org/2000/svg">
<path d="M4.99967 4.3335H11.6663C12.0345 4.3335 12.333 4.63197 12.333 5.00016V11.6668C12.333 12.035 12.0345 12.3335 11.6663 12.3335H4.99967C4.63148 12.3335 4.33301 12.035 4.33301 11.6668V5.00016C4.33301 4.63197 4.63148 4.3335 4.99967 4.3335Z" fill="white" stroke="#BCBCBC" stroke-width="2"/>
<path d="M18.3337 4.3335H25.0003C25.3685 4.3335 25.667 4.63197 25.667 5.00016V11.6668C25.667 12.035 25.3685 12.3335 25.0003 12.3335H18.3337C17.9655 12.3335 17.667 12.035 17.667 11.6668V5.00016C17.667 4.63197 17.9655 4.3335 18.3337 4.3335Z" fill="white" stroke="#BCBCBC" stroke-width="2"/>
<path d="M4.99967 17.666H11.6663C12.0345 17.666 12.333 17.9645 12.333 18.3327V24.9993C12.333 25.3675 12.0345 25.666 11.6663 25.666H4.99967C4.63148 25.666 4.33301 25.3675 4.33301 24.9993V18.3327C4.33301 17.9645 4.63148 17.666 4.99967 17.666Z" fill="white" stroke="#BCBCBC" stroke-width="2"/>
<path d="M18.3337 17.666H25.0003C25.3685 17.666 25.667 17.9645 25.667 18.3327V24.9993C25.667 25.3675 25.3685 25.666 25.0003 25.666H18.3337C17.9655 25.666 17.667 25.3675 17.667 24.9993V18.3327C17.667 17.9645 17.9655 17.666 18.3337 17.666Z" fill="white" stroke="#BCBCBC" stroke-width="2"/>
</svg>
