<svg width="30" height="30" viewBox="0 0 30 30" fill="none" xmlns="http://www.w3.org/2000/svg">
<rect width="30" height="30" fill="white"/>
<path d="M11.6666 3.3335H4.99992C4.07944 3.3335 3.33325 4.07969 3.33325 5.00016V11.6668C3.33325 12.5873 4.07944 13.3335 4.99992 13.3335H11.6666C12.5871 13.3335 13.3333 12.5873 13.3333 11.6668V5.00016C13.3333 4.07969 12.5871 3.3335 11.6666 3.3335Z" fill="#0064E5"/>
<path d="M25.0001 3.3335H18.3334C17.4129 3.3335 16.6667 4.07969 16.6667 5.00016V11.6668C16.6667 12.5873 17.4129 13.3335 18.3334 13.3335H25.0001C25.9206 13.3335 26.6667 12.5873 26.6667 11.6668V5.00016C26.6667 4.07969 25.9206 3.3335 25.0001 3.3335Z" fill="#0064E5"/>
<path d="M11.6666 16.667H4.99992C4.07944 16.667 3.33325 17.4132 3.33325 18.3337V25.0003C3.33325 25.9208 4.07944 26.667 4.99992 26.667H11.6666C12.5871 26.667 13.3333 25.9208 13.3333 25.0003V18.3337C13.3333 17.4132 12.5871 16.667 11.6666 16.667Z" fill="#0064E5"/>
<path d="M25.0001 16.667H18.3334C17.4129 16.667 16.6667 17.4132 16.6667 18.3337V25.0003C16.6667 25.9208 17.4129 26.667 18.3334 26.667H25.0001C25.9206 26.667 26.6667 25.9208 26.6667 25.0003V18.3337C26.6667 17.4132 25.9206 16.667 25.0001 16.667Z" fill="#0064E5"/>
</svg>
