<svg width="25" height="25" viewBox="0 0 25 25" fill="none" xmlns="http://www.w3.org/2000/svg">
<path d="M7.29165 10.2679V14.7321C7.29165 15.4718 6.76699 16.0714 6.11978 16.0714H1.17188C0.524658 16.0714 0 15.4718 0 14.7321V10.2679C0 9.52818 0.524658 8.92857 1.17188 8.92857H6.11978C6.76699 8.92857 7.29165 9.52818 7.29165 10.2679ZM0 19.1964V23.6607C0 24.4004 0.524658 25 1.17188 25H6.11978C6.76699 25 7.29165 24.4004 7.29165 23.6607V19.1964C7.29165 18.4568 6.76699 17.8571 6.11978 17.8571H1.17188C0.524658 17.8571 0 18.4568 0 19.1964ZM6.11978 0H1.17188C0.524658 0 0 0.599609 0 1.33929V5.80357C0 6.54325 0.524658 7.14286 1.17188 7.14286H6.11978C6.76699 7.14286 7.29165 6.54325 7.29165 5.80357V1.33929C7.29165 0.599609 6.76699 0 6.11978 0ZM10.026 25H23.8281C24.4753 25 25 24.4004 25 23.6607V19.1964C25 18.4568 24.4753 17.8571 23.8281 17.8571H10.026C9.37881 17.8571 8.85415 18.4568 8.85415 19.1964V23.6607C8.85415 24.4004 9.37881 25 10.026 25ZM8.85415 1.33929V5.80357C8.85415 6.54325 9.37881 7.14286 10.026 7.14286H23.8281C24.4753 7.14286 25 6.54325 25 5.80357V1.33929C25 0.599609 24.4753 0 23.8281 0H10.026C9.37881 0 8.85415 0.599609 8.85415 1.33929ZM10.026 16.0714H23.8281C24.4753 16.0714 25 15.4718 25 14.7321V10.2679C25 9.52818 24.4753 8.92857 23.8281 8.92857H10.026C9.37881 8.92857 8.85415 9.52818 8.85415 10.2679V14.7321C8.85415 15.4718 9.37881 16.0714 10.026 16.0714Z" fill="#0064E5"/>
</svg>
