<svg width="25" height="25" viewBox="0 0 25 25" fill="none" xmlns="http://www.w3.org/2000/svg">
<path d="M6.29165 10.2679V14.7321C6.29165 14.8669 6.24379 14.9659 6.19584 15.0207C6.14963 15.0735 6.12042 15.0714 6.11978 15.0714H1.17188L1.1718 15.0714C1.17008 15.0715 1.14112 15.0724 1.09581 15.0207C1.04786 14.9659 1 14.8669 1 14.7321V10.2679C1 10.1331 1.04786 10.0341 1.09581 9.97934C1.14112 9.92755 1.17008 9.92851 1.1718 9.92857L1.17188 9.92857H6.11978L6.11985 9.92857C6.12157 9.92851 6.15053 9.92755 6.19584 9.97934C6.24379 10.0341 6.29165 10.1331 6.29165 10.2679ZM1 23.6607V19.1964C1 19.0617 1.04786 18.9627 1.09581 18.9079C1.14112 18.8561 1.17008 18.8571 1.1718 18.8571L1.17188 18.8571H6.11978L6.11985 18.8571C6.12157 18.8571 6.15053 18.8561 6.19584 18.9079C6.24379 18.9627 6.29165 19.0617 6.29165 19.1964V23.6607C6.29165 23.7954 6.24379 23.8944 6.19584 23.9492C6.14963 24.002 6.12042 24 6.11978 24H1.17188L1.1718 24C1.17008 24.0001 1.14112 24.001 1.09581 23.9492C1.04787 23.8944 1 23.7954 1 23.6607ZM1.17188 1H6.11978L6.11985 0.999998C6.12157 0.999941 6.15053 0.998982 6.19584 1.05077C6.24379 1.10556 6.29165 1.20456 6.29165 1.33929V5.80357C6.29165 5.93829 6.24379 6.0373 6.19584 6.09209C6.15053 6.14388 6.12157 6.14292 6.11985 6.14286L6.11978 6.14286H1.17188L1.1718 6.14286C1.17008 6.14292 1.14112 6.14388 1.09581 6.09209C1.04786 6.0373 1 5.93829 1 5.80357V1.33929C1 1.20456 1.04786 1.10556 1.09581 1.05077C1.14112 0.998982 1.17008 0.999941 1.1718 0.999998C1.17184 0.999999 1.17186 1 1.17188 1ZM23.8281 24H10.026L10.026 24C10.0242 24.0001 9.99527 24.001 9.94996 23.9492C9.90201 23.8944 9.85415 23.7954 9.85415 23.6607V19.1964C9.85415 19.0617 9.90201 18.9627 9.94996 18.9079C9.99527 18.8561 10.0242 18.8571 10.026 18.8571L10.026 18.8571H23.8281C23.8288 18.8571 23.858 18.8551 23.9042 18.9079C23.9521 18.9627 24 19.0617 24 19.1964V23.6607C24 23.7954 23.9521 23.8944 23.9042 23.9492C23.858 24.002 23.8288 24 23.8281 24ZM9.85415 5.80357V1.33929C9.85415 1.20456 9.90201 1.10556 9.94996 1.05077C9.99527 0.998982 10.0242 0.999941 10.026 0.999998L10.026 1H23.8281L23.8282 0.999998C23.8299 0.999941 23.8589 0.998982 23.9042 1.05077C23.9521 1.10556 24 1.20456 24 1.33929V5.80357C24 5.93829 23.9521 6.0373 23.9042 6.09209C23.858 6.1449 23.8288 6.14286 23.8281 6.14286H10.026L10.026 6.14286C10.0242 6.14292 9.99527 6.14387 9.94996 6.09209C9.90201 6.0373 9.85415 5.93829 9.85415 5.80357ZM23.8281 15.0714H10.026C10.0254 15.0714 9.99617 15.0735 9.94996 15.0207C9.90201 14.9659 9.85415 14.8669 9.85415 14.7321V10.2679C9.85415 10.1331 9.90201 10.0341 9.94996 9.97934C9.99527 9.92755 10.0242 9.92851 10.026 9.92857L10.026 9.92857H23.8281L23.8282 9.92857C23.8299 9.92851 23.8589 9.92755 23.9042 9.97934C23.9521 10.0341 24 10.1331 24 10.2679V14.7321C24 14.8669 23.9521 14.9659 23.9042 15.0207C23.858 15.0735 23.8288 15.0714 23.8281 15.0714Z" fill="white" stroke="#BCBCBC" stroke-width="2"/>
</svg>
