<svg width="20" height="20" viewBox="0 0 20 20" fill="none" xmlns="http://www.w3.org/2000/svg">
<path d="M16.6189 7.98537C16.6189 8.03009 16.6111 8.07888 16.5916 8.11954V8.13581L15.7707 10.002C15.6261 10.3639 15.4306 10.7014 15.1883 10.9982C15.0671 11.1486 14.9342 11.2869 14.7896 11.417C14.125 12.0187 13.2768 12.3562 12.3973 12.3602H9.79786C9.50078 12.3562 9.2037 12.2871 8.93008 12.161C8.65645 12.035 8.41019 11.8561 8.20302 11.6325C7.78476 11.1811 7.55804 10.5753 7.56977 9.94918C7.5815 9.32304 7.83167 8.72942 8.26556 8.29438C8.69945 7.85933 9.28188 7.62351 9.88776 7.6357H16.3062C16.3883 7.64384 16.4665 7.6845 16.5212 7.74548C16.5759 7.81054 16.6072 7.89185 16.6111 7.97724" fill="#1978F0"/>
<path d="M19.9882 0.341533C19.9882 0.386257 19.9804 0.435047 19.9609 0.475706C19.9609 0.479772 19.9609 0.487904 19.9609 0.49197L19.0423 2.5615C18.7374 3.21203 18.2644 3.76093 17.6741 4.14718C17.1542 4.48465 16.5601 4.68388 15.9464 4.72047H9.84845C8.51942 4.753 7.25293 5.32222 6.32651 6.31023C5.39618 7.29823 4.8763 8.6237 4.8763 10.0061C4.8763 11.3885 5.39618 12.714 6.32651 13.702C7.25683 14.69 8.51942 15.2592 9.84845 15.2917C10.2237 15.2917 10.5912 15.3893 10.9234 15.5723C11.2557 15.7552 11.5371 16.0236 11.7443 16.3489C11.9515 16.6741 12.0805 17.0482 12.1156 17.4344C12.1508 17.8207 12.0922 18.2151 11.9476 18.5729L11.9006 18.6786C11.713 19.077 11.4238 19.4104 11.0602 19.6422C10.7006 19.874 10.2823 20 9.85627 20C7.69463 20 5.59945 19.2478 3.89906 17.8614C2.20259 16.4749 0.998636 14.5355 0.490476 12.3562C0.189488 11.0673 0.138672 9.72555 0.341937 8.41634C0.545201 7.10714 0.994728 5.85078 1.67097 4.72454C2.52703 3.29742 3.71534 2.11425 5.12256 1.28888C6.52977 0.463508 8.12071 0.0203293 9.73901 0H19.6677C19.7537 0 19.8397 0.0365928 19.9022 0.101647C19.9648 0.166701 19.9999 0.252084 19.9999 0.345599" fill="#1978F0"/>
</svg>
