<svg width="21" height="20" viewBox="0 0 21 20" fill="none" xmlns="http://www.w3.org/2000/svg">
<path d="M5.87927 0C2.8496 0 0.384766 2.49222 0.384766 5.55556V14.4444C0.384766 17.5078 2.8496 20 5.87927 20H14.6705C17.7002 20 20.165 17.5078 20.165 14.4444V5.55556C20.165 2.49222 17.7002 0 14.6705 0H5.87927ZM5.87927 2.22222H14.6705C16.4881 2.22222 17.9672 3.71778 17.9672 5.55556V14.4444C17.9672 16.2822 16.4881 17.7778 14.6705 17.7778H5.87927C4.06169 17.7778 2.58257 16.2822 2.58257 14.4444V5.55556C2.58257 3.71778 4.06169 2.22222 5.87927 2.22222ZM15.7694 3.33333C15.4779 3.33333 15.1984 3.4504 14.9923 3.65877C14.7863 3.86714 14.6705 4.14976 14.6705 4.44444C14.6705 4.73913 14.7863 5.02174 14.9923 5.23012C15.1984 5.43849 15.4779 5.55556 15.7694 5.55556C16.0608 5.55556 16.3403 5.43849 16.5464 5.23012C16.7525 5.02174 16.8683 4.73913 16.8683 4.44444C16.8683 4.14976 16.7525 3.86714 16.5464 3.65877C16.3403 3.4504 16.0608 3.33333 15.7694 3.33333ZM10.2749 4.44444C7.24521 4.44444 4.78037 6.93667 4.78037 10C4.78037 13.0633 7.24521 15.5556 10.2749 15.5556C13.3045 15.5556 15.7694 13.0633 15.7694 10C15.7694 6.93667 13.3045 4.44444 10.2749 4.44444ZM10.2749 6.66667C12.0925 6.66667 13.5716 8.16222 13.5716 10C13.5716 11.8378 12.0925 13.3333 10.2749 13.3333C8.45729 13.3333 6.97817 11.8378 6.97817 10C6.97817 8.16222 8.45729 6.66667 10.2749 6.66667Z" fill="#333333"/>
</svg>
