<svg width="35" height="35" viewBox="0 0 35 35" fill="none" xmlns="http://www.w3.org/2000/svg">
<path d="M17.5 4.375C24.7188 4.375 30.625 10.2812 30.625 17.5C30.625 24.7188 24.7188 30.625 17.5 30.625C10.2812 30.625 4.375 24.7188 4.375 17.5C4.375 10.2812 10.2812 4.375 17.5 4.375ZM17.5 2.1875C9.07812 2.1875 2.1875 9.07812 2.1875 17.5C2.1875 25.9219 9.07812 32.8125 17.5 32.8125C25.9219 32.8125 32.8125 25.9219 32.8125 17.5C32.8125 9.07812 25.9219 2.1875 17.5 2.1875Z" fill="#0E4287"/>
<path d="M26.25 16.4062H18.5938V8.75H16.4062V16.4062H8.75V18.5938H16.4062V26.25H18.5938V18.5938H26.25V16.4062Z" fill="#0E4287"/>
</svg>
