<svg width="21" height="21" viewBox="0 0 21 21" fill="none" xmlns="http://www.w3.org/2000/svg">
<path d="M6.09783 6.09807C6.15879 6.03696 6.2312 5.98847 6.31093 5.95539C6.39066 5.9223 6.47613 5.90527 6.56245 5.90527C6.64877 5.90527 6.73424 5.9223 6.81397 5.95539C6.8937 5.98847 6.96612 6.03696 7.02708 6.09807L10.5 9.57226L13.9728 6.09807C14.0338 6.03706 14.1063 5.98866 14.186 5.95563C14.2657 5.92261 14.3512 5.90562 14.4375 5.90562C14.5237 5.90562 14.6092 5.92261 14.6889 5.95563C14.7686 5.98866 14.8411 6.03706 14.9021 6.09807C14.9631 6.15909 15.0115 6.23152 15.0445 6.31124C15.0775 6.39096 15.0945 6.47641 15.0945 6.5627C15.0945 6.64899 15.0775 6.73443 15.0445 6.81415C15.0115 6.89387 14.9631 6.96631 14.9021 7.02732L11.4279 10.5002L14.9021 13.9731C14.9631 14.0341 15.0115 14.1065 15.0445 14.1862C15.0775 14.266 15.0945 14.3514 15.0945 14.4377C15.0945 14.524 15.0775 14.6094 15.0445 14.6891C15.0115 14.7689 14.9631 14.8413 14.9021 14.9023C14.8411 14.9633 14.7686 15.0117 14.6889 15.0448C14.6092 15.0778 14.5237 15.0948 14.4375 15.0948C14.3512 15.0948 14.2657 15.0778 14.186 15.0448C14.1063 15.0117 14.0338 14.9633 13.9728 14.9023L10.5 11.4281L7.02708 14.9023C6.96606 14.9633 6.89363 15.0117 6.81391 15.0448C6.73419 15.0778 6.64874 15.0948 6.56245 15.0948C6.47616 15.0948 6.39072 15.0778 6.311 15.0448C6.23128 15.0117 6.15884 14.9633 6.09783 14.9023C6.03681 14.8413 5.98841 14.7689 5.95539 14.6891C5.92237 14.6094 5.90537 14.524 5.90537 14.4377C5.90537 14.3514 5.92237 14.266 5.95539 14.1862C5.98841 14.1065 6.03681 14.0341 6.09783 13.9731L9.57201 10.5002L6.09783 7.02732C6.03671 6.96636 5.98823 6.89394 5.95514 6.81422C5.92206 6.73449 5.90503 6.64902 5.90503 6.5627C5.90503 6.47638 5.92206 6.39091 5.95514 6.31118C5.98823 6.23145 6.03671 6.15903 6.09783 6.09807Z" fill="#C3C3C3"/>
</svg>
