<svg width="35" height="35" viewBox="0 0 35 35" fill="none" xmlns="http://www.w3.org/2000/svg">
<path d="M16.0417 7.29137H8.75004C7.97649 7.29137 7.23463 7.59867 6.68765 8.14565C6.14066 8.69263 5.83337 9.43449 5.83337 10.208V26.2497C5.83337 27.0233 6.14066 27.7651 6.68765 28.3121C7.23463 28.8591 7.97649 29.1664 8.75004 29.1664H24.7917C25.5653 29.1664 26.3071 28.8591 26.8541 28.3121C27.4011 27.7651 27.7084 27.0233 27.7084 26.2497V18.958M25.6463 5.22929C25.9153 4.95072 26.2372 4.72852 26.593 4.57566C26.9489 4.4228 27.3316 4.34234 27.7189 4.33898C28.1061 4.33561 28.4902 4.40941 28.8487 4.55606C29.2071 4.70271 29.5328 4.91929 29.8066 5.19314C30.0805 5.46699 30.297 5.79264 30.4437 6.15109C30.5903 6.50954 30.6641 6.89361 30.6608 7.28088C30.6574 7.66815 30.5769 8.05088 30.4241 8.40672C30.2712 8.76257 30.049 9.0844 29.7705 9.35346L17.2492 21.8747H13.125V17.7505L25.6463 5.22929Z" stroke="black" stroke-width="1.75" stroke-linecap="round" stroke-linejoin="round"/>
</svg>
