<svg width="15" height="15" viewBox="0 0 15 15" fill="none" xmlns="http://www.w3.org/2000/svg">
<path d="M12.5 0C11.837 0 11.2011 0.263392 10.7322 0.732233C10.2634 1.20107 10 1.83696 10 2.5C10.0011 2.67573 10.0208 2.85085 10.0586 3.02246L4.38232 5.8606C4.14821 5.59106 3.85909 5.3748 3.5344 5.22636C3.20972 5.07791 2.85701 5.00073 2.5 5C1.83696 5 1.20107 5.26339 0.732233 5.73223C0.263392 6.20107 0 6.83696 0 7.5C0 8.16304 0.263392 8.79893 0.732233 9.26777C1.20107 9.73661 1.83696 10 2.5 10C2.85712 9.9996 3.21001 9.92269 3.53491 9.77445C3.85981 9.62621 4.14918 9.41009 4.38354 9.14062L10.0562 11.9775C10.0191 12.1492 10.0003 12.3244 10 12.5C10 13.163 10.2634 13.7989 10.7322 14.2678C11.2011 14.7366 11.837 15 12.5 15C13.163 15 13.7989 14.7366 14.2678 14.2678C14.7366 13.7989 15 13.163 15 12.5C15 11.837 14.7366 11.2011 14.2678 10.7322C13.7989 10.2634 13.163 10 12.5 10C12.1429 10.0004 11.79 10.0773 11.4651 10.2255C11.1402 10.3738 10.8508 10.5899 10.6165 10.8594L4.94385 8.02246C4.98087 7.85076 4.99969 7.67564 5 7.5C4.9988 7.32468 4.97916 7.14997 4.94141 6.97876L10.6177 4.14062C10.8519 4.40993 11.1411 4.62597 11.4658 4.7742C11.7904 4.92243 12.1431 4.99942 12.5 5C13.163 5 13.7989 4.73661 14.2678 4.26777C14.7366 3.79893 15 3.16304 15 2.5C15 1.83696 14.7366 1.20107 14.2678 0.732233C13.7989 0.263392 13.163 0 12.5 0Z" fill="#BCBCBC"/>
</svg>
