<svg width="251" height="47" viewBox="0 0 251 47" fill="none" xmlns="http://www.w3.org/2000/svg">
<path d="M7.74636 0.524414H243.254C246.898 0.524414 250 4.10449 250 8.72005V38.2853C250 42.9009 246.898 46.481 243.254 46.481H7.74636C4.10193 46.481 1 42.9009 1 38.2853V8.72005C1 4.10449 4.10193 0.524414 7.74636 0.524414Z" fill="white" stroke="#BCBCBC"/>
<path d="M44.3696 13.0244H23.5V33.894H44.3696V13.0244Z" fill="white"/>
<path fill-rule="evenodd" clip-rule="evenodd" d="M43.5349 23.6866C43.5349 22.9775 43.4711 22.2957 43.3531 21.6411H33.9347V25.5093H39.3165C39.085 26.7593 38.3801 27.8184 37.3211 28.5274V31.0366H40.5531C42.444 29.2956 43.5349 26.732 43.5349 23.6866Z" fill="#4285F4"/>
<path fill-rule="evenodd" clip-rule="evenodd" d="M33.9347 33.4587C36.6345 33.4587 38.8982 32.5633 40.5527 31.036L37.3211 28.5271C36.4257 29.1272 35.2802 29.4817 33.9347 29.4817C31.3302 29.4817 29.1257 27.7224 28.3392 25.3589H24.9984V27.9498C26.6437 31.2182 30.0256 33.4587 33.9347 33.4587Z" fill="#34A853"/>
<path fill-rule="evenodd" clip-rule="evenodd" d="M28.3392 25.3592C28.1392 24.7592 28.0257 24.1183 28.0257 23.4592C28.0257 22.8001 28.1392 22.1592 28.3392 21.5592V18.9683H24.9984C24.3212 20.3182 23.9348 21.8455 23.9348 23.4592C23.9348 25.0728 24.3212 26.6 24.9984 27.9502L28.3392 25.3592Z" fill="#FBBC05"/>
<path fill-rule="evenodd" clip-rule="evenodd" d="M33.9347 17.4362C35.4028 17.4362 36.721 17.9408 37.7572 18.9317L40.6255 16.0635C38.8936 14.4499 36.6303 13.459 33.9347 13.459C30.0256 13.459 26.6437 15.6999 24.9984 18.9681L28.3392 21.559C29.1257 19.1953 31.3302 17.4362 33.9347 17.4362Z" fill="#EA4335"/>
<path d="M70.0394 25.614C69.9147 26.9331 69.4281 27.9633 68.5787 28.705C67.7297 29.4409 66.6004 29.8091 65.1906 29.8091C64.2054 29.8091 63.3365 29.5768 62.5836 29.1125C61.8365 28.6429 61.2588 27.9778 60.8512 27.1171C60.4437 26.2566 60.2313 25.2574 60.2143 24.1195V22.9646C60.2143 21.7984 60.4209 20.7709 60.8343 19.882C61.2476 18.9932 61.839 18.3082 62.6089 17.827C63.3845 17.3458 64.2791 17.1052 65.2925 17.1052C66.6567 17.1052 67.755 17.476 68.5874 18.2176C69.4194 18.9593 69.9035 20.0066 70.0394 21.3597H67.8995C67.7976 20.4708 67.5371 19.8311 67.118 19.4405C66.7051 19.0442 66.0963 18.8461 65.2925 18.8461C64.3582 18.8461 63.6392 19.1886 63.1356 19.8735C62.6374 20.5529 62.3827 21.5521 62.3711 22.8712V23.9666C62.3711 25.3027 62.6089 26.3217 63.0847 27.0237C63.5659 27.7257 64.2679 28.0768 65.1906 28.0768C66.0342 28.0768 66.6683 27.8871 67.0928 27.5077C67.5173 27.1284 67.7865 26.4972 67.8995 25.614H70.0394ZM71.3812 24.9602C71.3812 24.0601 71.5593 23.2505 71.9163 22.5315C72.2728 21.8069 72.7739 21.2521 73.4192 20.8671C74.0644 20.4765 74.8061 20.2812 75.6439 20.2812C76.8839 20.2812 77.8886 20.6803 78.6585 21.4785C79.4342 22.2768 79.8533 23.3354 79.9154 24.6545L79.9241 25.1385C79.9241 26.0443 79.7485 26.8539 79.3973 27.5672C79.0519 28.2805 78.5541 28.8326 77.9031 29.2231C77.2574 29.6136 76.5103 29.8091 75.6609 29.8091C74.3647 29.8091 73.3256 29.3788 72.5445 28.5182C71.7688 27.6521 71.3812 26.5 71.3812 25.0621V24.9602ZM73.4449 25.1385C73.4449 26.0839 73.6399 26.8256 74.0305 27.3634C74.4214 27.8954 74.9648 28.1617 75.6609 28.1617C76.3575 28.1617 76.898 27.89 77.2831 27.3464C77.6736 26.8029 77.8687 26.0075 77.8687 24.9602C77.8687 24.0317 77.6679 23.2958 77.2661 22.7523C76.8698 22.2088 76.3289 21.9371 75.6439 21.9371C74.9706 21.9371 74.4355 22.206 74.0392 22.7438C73.6428 23.276 73.4449 24.0742 73.4449 25.1385ZM83.5839 20.451L83.6435 21.5125C84.3227 20.6916 85.2143 20.2812 86.3184 20.2812C88.2318 20.2812 89.2054 21.3766 89.2394 23.5675V29.6393H87.1761V23.6864C87.1761 23.1033 87.0486 22.6731 86.7939 22.3956C86.5446 22.1126 86.1341 21.971 85.5626 21.971C84.7302 21.971 84.1102 22.3475 83.7027 23.1005V29.6393H81.6395V20.451H83.5839ZM93.9353 18.2176V20.451H95.5575V21.9795H93.9353V27.1086C93.9353 27.4596 94.0032 27.7144 94.1395 27.8729C94.2807 28.0258 94.53 28.102 94.8866 28.102C95.1243 28.102 95.3649 28.0739 95.6084 28.0171V29.6136C95.1384 29.7441 94.6857 29.8091 94.2496 29.8091C92.6647 29.8091 91.8721 28.9345 91.8721 27.185V21.9795H90.3604V20.451H91.8721V18.2176H93.9353ZM99.3361 29.6393H97.2729V20.451H99.3361V29.6393ZM97.1453 18.0648C97.1453 17.7478 97.2443 17.4845 97.4427 17.2751C97.6464 17.0656 97.9351 16.9609 98.3086 16.9609C98.6826 16.9609 98.9713 17.0656 99.175 17.2751C99.3788 17.4845 99.4807 17.7478 99.4807 18.0648C99.4807 18.3762 99.3788 18.6366 99.175 18.8461C98.9713 19.0499 98.6826 19.1517 98.3086 19.1517C97.9351 19.1517 97.6464 19.0499 97.4427 18.8461C97.2443 18.6366 97.1453 18.3762 97.1453 18.0648ZM103.506 20.451L103.565 21.5125C104.245 20.6916 105.136 20.2812 106.24 20.2812C108.154 20.2812 109.127 21.3766 109.161 23.5675V29.6393H107.098V23.6864C107.098 23.1033 106.97 22.6731 106.716 22.3956C106.467 22.1126 106.056 21.971 105.484 21.971C104.652 21.971 104.032 22.3475 103.625 23.1005V29.6393H101.561V20.451H103.506ZM116.838 28.739C116.232 29.4525 115.372 29.8091 114.256 29.8091C113.26 29.8091 112.504 29.5176 111.989 28.9345C111.48 28.3513 111.225 27.5077 111.225 26.4038V20.451H113.289V26.3783C113.289 27.5445 113.772 28.1277 114.741 28.1277C115.743 28.1277 116.419 27.7682 116.77 27.0492V20.451H118.833V29.6393H116.889L116.838 28.739ZM124.982 29.8091C123.674 29.8091 122.613 29.3987 121.797 28.5779C120.988 27.7512 120.583 26.6529 120.583 25.2829V25.0281C120.583 24.111 120.758 23.2929 121.11 22.574C121.466 21.8493 121.964 21.2861 122.604 20.8841C123.244 20.4821 123.957 20.2812 124.744 20.2812C125.995 20.2812 126.96 20.6803 127.64 21.4785C128.325 22.2768 128.667 23.4062 128.667 24.8668V25.699H122.663C122.726 26.4576 122.978 27.0577 123.419 27.4992C123.867 27.9409 124.427 28.1617 125.101 28.1617C126.046 28.1617 126.816 27.7795 127.41 27.0152L128.523 28.0768C128.155 28.6259 127.662 29.0533 127.045 29.3589C126.434 29.6592 125.746 29.8091 124.982 29.8091ZM124.735 21.9371C124.169 21.9371 123.711 22.1352 123.36 22.5315C123.014 22.9278 122.793 23.4798 122.697 24.1874H126.629V24.0346C126.584 23.3439 126.4 22.8231 126.077 22.4721C125.755 22.1154 125.307 21.9371 124.735 21.9371ZM142.679 26.7944L144.139 20.451H146.152L143.647 29.6393H141.948L139.978 23.3298L138.042 29.6393H136.344L133.83 20.451H135.843L137.329 26.7265L139.214 20.451H140.768L142.679 26.7944ZM149.727 29.6393H147.663V20.451H149.727V29.6393ZM147.536 18.0648C147.536 17.7478 147.635 17.4845 147.833 17.2751C148.037 17.0656 148.326 16.9609 148.699 16.9609C149.073 16.9609 149.362 17.0656 149.566 17.2751C149.769 17.4845 149.871 17.7478 149.871 18.0648C149.871 18.3762 149.769 18.6366 149.566 18.8461C149.362 19.0499 149.073 19.1517 148.699 19.1517C148.326 19.1517 148.037 19.0499 147.833 18.8461C147.635 18.6366 147.536 18.3762 147.536 18.0648ZM154.567 18.2176V20.451H156.189V21.9795H154.567V27.1086C154.567 27.4596 154.635 27.7144 154.771 27.8729C154.913 28.0258 155.162 28.102 155.519 28.102C155.756 28.102 155.997 28.0739 156.24 28.0171V29.6136C155.77 29.7441 155.317 29.8091 154.882 29.8091C153.296 29.8091 152.504 28.9345 152.504 27.185V21.9795H150.992V20.451H152.504V18.2176H154.567ZM159.807 21.453C160.48 20.6718 161.333 20.2812 162.363 20.2812C164.321 20.2812 165.315 21.3993 165.344 23.6354V29.6393H163.28V23.7119C163.28 23.0778 163.141 22.6306 162.864 22.3702C162.592 22.1041 162.19 21.971 161.658 21.971C160.832 21.971 160.214 22.339 159.807 23.075V29.6393H157.743V16.5957H159.807V21.453ZM181.444 28.0341C180.997 28.6172 180.377 29.0591 179.584 29.3589C178.792 29.6592 177.892 29.8091 176.884 29.8091C175.848 29.8091 174.931 29.5739 174.132 29.1043C173.334 28.6342 172.717 27.9633 172.281 27.0917C171.851 26.2141 171.627 25.1923 171.61 24.0261V23.058C171.61 21.1898 172.058 19.732 172.952 18.6847C173.847 17.6317 175.095 17.1052 176.697 17.1052C178.073 17.1052 179.166 17.4449 179.975 18.1243C180.784 18.8036 181.271 19.783 181.435 21.0624H179.33C179.092 19.5735 178.228 18.8291 176.74 18.8291C175.777 18.8291 175.044 19.1773 174.54 19.8735C174.042 20.5643 173.784 21.5804 173.767 22.9221V23.8732C173.767 25.2093 174.048 26.2481 174.608 26.9897C175.174 27.7257 175.958 28.0937 176.96 28.0937C178.059 28.0937 178.84 27.8446 179.304 27.3464V24.9262H176.756V23.2958H181.444V28.0341ZM183.219 24.9602C183.219 24.0601 183.397 23.2505 183.754 22.5315C184.11 21.8069 184.611 21.2521 185.257 20.8671C185.902 20.4765 186.644 20.2812 187.481 20.2812C188.721 20.2812 189.727 20.6803 190.496 21.4785C191.272 22.2768 191.691 23.3354 191.753 24.6545L191.762 25.1385C191.762 26.0443 191.586 26.8539 191.235 27.5672C190.89 28.2805 190.392 28.8326 189.741 29.2231C189.095 29.6136 188.348 29.8091 187.499 29.8091C186.202 29.8091 185.164 29.3788 184.382 28.5182C183.607 27.6521 183.219 26.5 183.219 25.0621V24.9602ZM185.282 25.1385C185.282 26.0839 185.477 26.8256 185.868 27.3634C186.259 27.8954 186.802 28.1617 187.499 28.1617C188.195 28.1617 188.736 27.89 189.121 27.3464C189.511 26.8029 189.707 26.0075 189.707 24.9602C189.707 24.0317 189.505 23.2958 189.104 22.7523C188.707 22.2088 188.167 21.9371 187.481 21.9371C186.808 21.9371 186.273 22.206 185.877 22.7438C185.48 23.276 185.282 24.0742 185.282 25.1385ZM193.12 24.9602C193.12 24.0601 193.299 23.2505 193.655 22.5315C194.012 21.8069 194.513 21.2521 195.158 20.8671C195.804 20.4765 196.545 20.2812 197.383 20.2812C198.623 20.2812 199.628 20.6803 200.398 21.4785C201.173 22.2768 201.593 23.3354 201.655 24.6545L201.663 25.1385C201.663 26.0443 201.488 26.8539 201.137 27.5672C200.791 28.2805 200.293 28.8326 199.642 29.2231C198.997 29.6136 198.249 29.8091 197.4 29.8091C196.104 29.8091 195.065 29.3788 194.284 28.5182C193.508 27.6521 193.12 26.5 193.12 25.0621V24.9602ZM195.184 25.1385C195.184 26.0839 195.379 26.8256 195.77 27.3634C196.16 27.8954 196.704 28.1617 197.4 28.1617C198.096 28.1617 198.637 27.89 199.022 27.3464C199.413 26.8029 199.608 26.0075 199.608 24.9602C199.608 24.0317 199.407 23.2958 199.005 22.7523C198.609 22.2088 198.068 21.9371 197.383 21.9371C196.709 21.9371 196.174 22.206 195.778 22.7438C195.382 23.276 195.184 24.0742 195.184 25.1385ZM203.047 24.9772C203.047 23.5505 203.381 22.4126 204.049 21.5634C204.723 20.7086 205.615 20.2812 206.724 20.2812C207.771 20.2812 208.595 20.6463 209.195 21.3766L209.289 20.451H211.148V29.3589C211.148 30.5649 210.772 31.5158 210.019 32.2124C209.272 32.9086 208.261 33.2568 206.988 33.2568C206.314 33.2568 205.654 33.1152 205.009 32.8319C204.369 32.5549 203.882 32.1896 203.548 31.7365L204.525 30.497C205.159 31.2499 205.94 31.6264 206.869 31.6264C207.554 31.6264 208.094 31.4396 208.49 31.0656C208.887 30.6979 209.085 30.1545 209.085 29.4356V28.8156C208.49 29.4778 207.698 29.8091 206.707 29.8091C205.632 29.8091 204.751 29.3817 204.066 28.5269C203.387 27.6719 203.047 26.4887 203.047 24.9772ZM205.102 25.1555C205.102 26.0783 205.289 26.8057 205.663 27.3379C206.042 27.8644 206.566 28.1277 207.234 28.1277C208.066 28.1277 208.683 27.771 209.085 27.0577V23.0156C208.694 22.3192 208.083 21.971 207.251 21.971C206.571 21.971 206.042 22.2399 205.663 22.7778C205.289 23.3156 205.102 24.1082 205.102 25.1555ZM215.471 29.6393H213.407V16.5957H215.471V29.6393ZM221.772 29.8091C220.464 29.8091 219.403 29.3987 218.587 28.5779C217.778 27.7512 217.373 26.6529 217.373 25.2829V25.0281C217.373 24.111 217.549 23.2929 217.899 22.574C218.256 21.8493 218.755 21.2861 219.394 20.8841C220.034 20.4821 220.747 20.2812 221.534 20.2812C222.785 20.2812 223.75 20.6803 224.43 21.4785C225.115 22.2768 225.457 23.4062 225.457 24.8668V25.699H219.454C219.516 26.4576 219.768 27.0577 220.209 27.4992C220.657 27.9409 221.217 28.1617 221.891 28.1617C222.836 28.1617 223.606 27.7795 224.2 27.0152L225.313 28.0768C224.945 28.6259 224.452 29.0533 223.835 29.3589C223.224 29.6592 222.536 29.8091 221.772 29.8091ZM221.526 21.9371C220.959 21.9371 220.501 22.1352 220.15 22.5315C219.804 22.9278 219.584 23.4798 219.488 24.1874H223.419V24.0346C223.374 23.3439 223.19 22.8231 222.867 22.4721C222.544 22.1154 222.097 21.9371 221.526 21.9371Z" fill="black" fill-opacity="0.54"/>
</svg>
