<svg width="250" height="46" viewBox="0 0 250 46" fill="none" xmlns="http://www.w3.org/2000/svg">
<rect x="0.5" y="0.5" width="249" height="45" rx="6.5" fill="#0064E5" stroke="#0064E5"/>
<path d="M44.8696 14H24V34.8696H44.8696V14Z" fill="#0064E5"/>
<path fill-rule="evenodd" clip-rule="evenodd" d="M44.0349 24.6621C44.0349 23.953 43.9711 23.2712 43.8531 22.6167H34.4347V26.4849H39.8165C39.585 27.7349 38.8801 28.7939 37.8211 29.503V32.0122H41.0531C42.944 30.2712 44.0349 27.7076 44.0349 24.6621Z" fill="#4285F4"/>
<path fill-rule="evenodd" clip-rule="evenodd" d="M34.4347 34.4343C37.1345 34.4343 39.3982 33.5389 41.0527 32.0116L37.8211 29.5027C36.9257 30.1028 35.7802 30.4573 34.4347 30.4573C31.8302 30.4573 29.6257 28.698 28.8392 26.3345H25.4984V28.9254C27.1437 32.1938 30.5256 34.4343 34.4347 34.4343Z" fill="#34A853"/>
<path fill-rule="evenodd" clip-rule="evenodd" d="M28.8392 26.3347C28.6392 25.7347 28.5257 25.0939 28.5257 24.4347C28.5257 23.7756 28.6392 23.1348 28.8392 22.5348V19.9438H25.4984C24.8212 21.2938 24.4348 22.8211 24.4348 24.4347C24.4348 26.0484 24.8212 27.5756 25.4984 28.9258L28.8392 26.3347Z" fill="#FBBC05"/>
<path fill-rule="evenodd" clip-rule="evenodd" d="M34.4347 18.4118C35.9028 18.4118 37.221 18.9164 38.2572 19.9073L41.1255 17.0391C39.3936 15.4255 37.1303 14.4346 34.4347 14.4346C30.5256 14.4346 27.1437 16.6755 25.4984 19.9436L28.8392 22.5345C29.6257 20.1709 31.8302 18.4118 34.4347 18.4118Z" fill="#EA4335"/>
<path d="M67.0694 29.12C66.792 29.4187 66.4347 29.6747 65.9974 29.888C65.5707 30.0907 65.1174 30.2133 64.6374 30.256C64.3814 30.2773 64.0934 30.2773 63.7734 30.256C63.464 30.2347 63.16 30.1973 62.8614 30.144C62.5734 30.1013 62.3067 30.0533 62.0614 30C61.8267 29.936 61.656 29.8773 61.5494 29.824C61.3894 29.7493 61.2934 29.696 61.2614 29.664C61.2294 29.6213 61.224 29.5413 61.2454 29.424L61.3574 28.24C61.368 28.1547 61.3947 28.1013 61.4374 28.08C61.48 28.0587 61.56 28.0747 61.6774 28.128C61.8054 28.1813 61.9867 28.2453 62.2214 28.32C62.456 28.384 62.7174 28.4427 63.0054 28.496C63.2934 28.5387 63.5814 28.5653 63.8694 28.576C64.168 28.5867 64.4347 28.5653 64.6694 28.512C64.9787 28.4373 65.2294 28.3413 65.4214 28.224C65.6134 28.096 65.7627 27.952 65.8694 27.792C65.9867 27.6213 66.0667 27.44 66.1094 27.248C66.152 27.0453 66.1734 26.8373 66.1734 26.624C66.1734 26.4213 66.04 26.144 65.7734 25.792C65.5174 25.44 65.144 25.12 64.6534 24.832C64.056 24.48 63.5387 24.1547 63.1014 23.856C62.664 23.5467 62.3014 23.2427 62.0134 22.944C61.736 22.6453 61.528 22.336 61.3894 22.016C61.2507 21.696 61.1814 21.344 61.1814 20.96C61.1814 20.5227 61.272 20.1067 61.4534 19.712C61.6454 19.3067 61.9014 18.9547 62.2214 18.656C62.552 18.3573 62.9414 18.1227 63.3894 17.952C63.848 17.7707 64.3494 17.68 64.8934 17.68C65.448 17.68 65.9014 17.7173 66.2534 17.792C66.616 17.856 66.9254 17.936 67.1814 18.032C67.2987 18.0747 67.368 18.1227 67.3894 18.176C67.4214 18.2187 67.4267 18.2773 67.4054 18.352L67.1974 19.376C67.176 19.4933 67.1387 19.5733 67.0854 19.616C67.0427 19.6587 66.9627 19.6587 66.8454 19.616C66.6854 19.5627 66.5094 19.5147 66.3174 19.472C66.1254 19.4187 65.928 19.376 65.7254 19.344C65.5227 19.312 65.3254 19.2907 65.1334 19.28C64.952 19.2693 64.7867 19.2747 64.6374 19.296C64.04 19.392 63.6187 19.5893 63.3734 19.888C63.1387 20.176 63.0214 20.544 63.0214 20.992C63.0214 21.2587 63.16 21.5573 63.4374 21.888C63.7147 22.208 64.12 22.528 64.6534 22.848C65.3254 23.2533 65.8747 23.616 66.3014 23.936C66.7387 24.256 67.08 24.5653 67.3254 24.864C67.5814 25.152 67.7574 25.4453 67.8534 25.744C67.96 26.0427 68.0134 26.368 68.0134 26.72C68.0134 27.6587 67.6987 28.4587 67.0694 29.12ZM70.1721 30.816C70.1188 30.816 70.0708 30.7947 70.0281 30.752C69.9961 30.72 69.9801 30.6773 69.9801 30.624V22.192C69.9801 22.1387 69.9961 22.096 70.0281 22.064C70.0708 22.0213 70.1188 22 70.1721 22H71.5161C71.5695 22 71.6121 22.0213 71.6441 22.064C71.6868 22.096 71.7081 22.1387 71.7081 22.192V30.624C71.7081 30.6773 71.6868 30.72 71.6441 30.752C71.6121 30.7947 71.5695 30.816 71.5161 30.816H70.1721ZM70.8601 20.256C70.5508 20.256 70.2895 20.1547 70.0761 19.952C69.8735 19.7387 69.7721 19.4827 69.7721 19.184C69.7721 18.8747 69.8735 18.6133 70.0761 18.4C70.2895 18.1867 70.5508 18.08 70.8601 18.08C71.1695 18.08 71.4308 18.1867 71.6441 18.4C71.8575 18.6133 71.9641 18.8747 71.9641 19.184C71.9641 19.4827 71.8575 19.7387 71.6441 19.952C71.4308 20.1547 71.1695 20.256 70.8601 20.256ZM77.0711 32.464C76.6445 32.464 76.2231 32.432 75.8071 32.368C75.3911 32.3147 74.9805 32.2133 74.5751 32.064C74.4791 32.0107 74.4098 31.968 74.3671 31.936C74.3351 31.904 74.3191 31.8507 74.3191 31.776L74.3991 30.48C74.4205 30.2773 74.5271 30.224 74.7191 30.32C75.0818 30.5013 75.4711 30.6347 75.8871 30.72C76.3138 30.816 76.7138 30.864 77.0871 30.864C77.7805 30.864 78.3298 30.6827 78.7351 30.32C79.1511 29.9573 79.3751 29.4613 79.4071 28.832C79.1298 29.1307 78.8045 29.3547 78.4311 29.504C78.0578 29.6533 77.6898 29.728 77.3271 29.728C76.7938 29.728 76.2978 29.6267 75.8391 29.424C75.3805 29.2107 74.9858 28.9227 74.6551 28.56C74.3245 28.1867 74.0631 27.744 73.8711 27.232C73.6898 26.72 73.5991 26.16 73.5991 25.552C73.5991 23.9733 73.9138 22.8053 74.5431 22.048C75.1831 21.2907 76.0951 20.912 77.2791 20.912C77.4925 20.912 77.7058 20.9387 77.9191 20.992C78.1431 21.0453 78.3565 21.1147 78.5591 21.2C78.7618 21.2853 78.9485 21.3867 79.1191 21.504C79.2898 21.6107 79.4391 21.728 79.5671 21.856L79.5511 21.296C79.5405 21.2107 79.5458 21.152 79.5671 21.12C79.5885 21.088 79.6525 21.072 79.7591 21.072H81.0231C81.1511 21.072 81.2151 21.152 81.2151 21.312V27.92C81.2151 29.36 80.8631 30.4747 80.1591 31.264C79.4551 32.064 78.4258 32.464 77.0711 32.464ZM77.4711 22.48C76.7991 22.48 76.2818 22.7253 75.9191 23.216C75.5671 23.7067 75.3911 24.4853 75.3911 25.552C75.3911 25.9573 75.4445 26.32 75.5511 26.64C75.6578 26.96 75.8018 27.232 75.9831 27.456C76.1751 27.6693 76.3885 27.8347 76.6231 27.952C76.8685 28.0693 77.1245 28.128 77.3911 28.128C77.6898 28.128 77.9671 28.0693 78.2231 27.952C78.4791 27.8347 78.7031 27.664 78.8951 27.44C79.0871 27.216 79.2365 26.944 79.3431 26.624C79.4605 26.304 79.5191 25.936 79.5191 25.52C79.5191 24.5493 79.3378 23.8027 78.9751 23.28C78.6125 22.7467 78.1111 22.48 77.4711 22.48ZM89.2863 29.968C89.2329 29.968 89.1849 29.9467 89.1423 29.904C89.1103 29.8507 89.0943 29.7973 89.0943 29.744V24.656C89.0943 23.888 88.9716 23.3333 88.7263 22.992C88.4916 22.6507 88.1183 22.48 87.6063 22.48C86.9023 22.48 86.3796 22.6773 86.0383 23.072C85.7076 23.456 85.5423 24.016 85.5423 24.752V29.76C85.5423 29.8987 85.4783 29.968 85.3503 29.968H84.0223C83.9689 29.968 83.9209 29.9467 83.8783 29.904C83.8463 29.8507 83.8303 29.7973 83.8303 29.744V23.376C83.8303 22.9707 83.8249 22.5813 83.8143 22.208C83.8143 21.8347 83.8036 21.5413 83.7823 21.328C83.7609 21.1893 83.8356 21.12 84.0063 21.12H85.2703C85.3876 21.12 85.4356 21.1627 85.4143 21.248L85.3983 21.824C85.6649 21.568 85.9849 21.3493 86.3583 21.168C86.7316 20.9867 87.1636 20.896 87.6543 20.896C88.6783 20.896 89.4569 21.2 89.9903 21.808C90.5343 22.4053 90.8063 23.2747 90.8063 24.416V29.76C90.8063 29.8987 90.7423 29.968 90.6143 29.968H89.2863ZM99.0694 29.968C99.016 29.968 98.968 29.9573 98.9254 29.936C98.8934 29.904 98.8827 29.8613 98.8934 29.808V29.168C98.616 29.5093 98.2747 29.7707 97.8694 29.952C97.4747 30.1333 97.0587 30.224 96.6214 30.224C95.5867 30.224 94.8134 29.92 94.3014 29.312C93.7894 28.704 93.5334 27.8347 93.5334 26.704V21.344C93.5334 21.2907 93.5494 21.2427 93.5814 21.2C93.624 21.1467 93.672 21.12 93.7254 21.12H95.0374C95.0907 21.12 95.1387 21.1467 95.1814 21.2C95.224 21.2533 95.2454 21.3067 95.2454 21.36V26.448C95.2454 27.248 95.3734 27.8133 95.6294 28.144C95.896 28.4747 96.2854 28.64 96.7974 28.64C97.3734 28.64 97.848 28.4213 98.2214 27.984C98.6054 27.5467 98.7974 26.896 98.7974 26.032V21.344C98.7974 21.2907 98.8134 21.2427 98.8454 21.2C98.888 21.1467 98.936 21.12 98.9894 21.12H100.317C100.371 21.12 100.413 21.152 100.445 21.216C100.488 21.2693 100.509 21.3227 100.509 21.376V27.904C100.509 28.2347 100.515 28.56 100.525 28.88C100.536 29.2 100.541 29.4933 100.541 29.76C100.541 29.8987 100.483 29.968 100.365 29.968H99.0694ZM106.965 30.368C106.538 30.368 106.127 30.2773 105.733 30.096C105.338 29.9147 105.007 29.6693 104.741 29.36V32.208C104.741 32.2933 104.73 32.3467 104.709 32.368C104.687 32.4 104.639 32.416 104.565 32.416H103.237C103.173 32.416 103.125 32.4 103.093 32.368C103.061 32.3467 103.045 32.2933 103.045 32.208V21.36C103.045 21.1893 103.125 21.104 103.285 21.104H104.517C104.666 21.104 104.741 21.1893 104.741 21.36V21.936C105.039 21.6267 105.375 21.3867 105.749 21.216C106.122 21.0453 106.527 20.96 106.965 20.96C107.541 20.96 108.053 21.072 108.501 21.296C108.959 21.5093 109.343 21.8187 109.653 22.224C109.973 22.6293 110.213 23.1253 110.373 23.712C110.543 24.2987 110.628 24.96 110.628 25.696C110.628 26.4107 110.543 27.056 110.373 27.632C110.202 28.208 109.957 28.6987 109.637 29.104C109.327 29.5093 108.943 29.8187 108.485 30.032C108.037 30.256 107.53 30.368 106.965 30.368ZM106.789 22.592C106.511 22.592 106.25 22.6613 106.005 22.8C105.759 22.928 105.541 23.1253 105.349 23.392C105.167 23.648 105.018 23.968 104.901 24.352C104.794 24.736 104.741 25.1787 104.741 25.68C104.741 26.7253 104.927 27.4987 105.301 28C105.674 28.5013 106.17 28.752 106.789 28.752C107.45 28.752 107.957 28.4853 108.309 27.952C108.661 27.4187 108.837 26.6613 108.837 25.68C108.837 24.6453 108.655 23.872 108.293 23.36C107.93 22.848 107.429 22.592 106.789 22.592ZM126.672 29.808C126.651 29.872 126.624 29.9147 126.592 29.936C126.571 29.9467 126.533 29.952 126.48 29.952H124.992C124.939 29.952 124.896 29.9467 124.864 29.936C124.843 29.9147 124.816 29.872 124.784 29.808L122.8 23.792L120.8 29.808C120.768 29.872 120.736 29.9147 120.704 29.936C120.672 29.9467 120.629 29.952 120.576 29.952H119.104C119.061 29.952 119.024 29.9467 118.992 29.936C118.96 29.9147 118.933 29.872 118.912 29.808L116.064 21.312C116.043 21.2587 116.037 21.216 116.048 21.184C116.069 21.152 116.139 21.136 116.256 21.136H117.648C117.712 21.136 117.755 21.1467 117.776 21.168C117.808 21.1787 117.835 21.2107 117.856 21.264L119.84 27.52L121.856 21.264C121.877 21.1787 121.941 21.136 122.048 21.136H123.536C123.643 21.136 123.707 21.1787 123.728 21.264L125.744 27.52L127.728 21.264C127.749 21.1787 127.813 21.136 127.92 21.136H129.344C129.451 21.136 129.515 21.152 129.536 21.184C129.557 21.216 129.557 21.2587 129.536 21.312L126.672 29.808ZM130.907 30.816C130.853 30.816 130.805 30.7947 130.763 30.752C130.731 30.72 130.715 30.6773 130.715 30.624V22.192C130.715 22.1387 130.731 22.096 130.763 22.064C130.805 22.0213 130.853 22 130.907 22H132.251C132.304 22 132.347 22.0213 132.379 22.064C132.421 22.096 132.443 22.1387 132.443 22.192V30.624C132.443 30.6773 132.421 30.72 132.379 30.752C132.347 30.7947 132.304 30.816 132.251 30.816H130.907ZM131.595 20.256C131.285 20.256 131.024 20.1547 130.811 19.952C130.608 19.7387 130.507 19.4827 130.507 19.184C130.507 18.8747 130.608 18.6133 130.811 18.4C131.024 18.1867 131.285 18.08 131.595 18.08C131.904 18.08 132.165 18.1867 132.379 18.4C132.592 18.6133 132.699 18.8747 132.699 19.184C132.699 19.4827 132.592 19.7387 132.379 19.952C132.165 20.1547 131.904 20.256 131.595 20.256ZM139.134 29.84C138.984 29.936 138.744 30.0213 138.414 30.096C138.094 30.1813 137.747 30.224 137.374 30.224C136.926 30.224 136.568 30.1333 136.302 29.952C136.035 29.76 135.838 29.5413 135.71 29.296C135.56 29.0187 135.47 28.6933 135.438 28.32C135.406 27.9467 135.39 27.44 135.39 26.8V22.784H134.062C134.008 22.784 133.96 22.768 133.918 22.736C133.886 22.6933 133.87 22.6453 133.87 22.592V21.328C133.87 21.2747 133.886 21.232 133.918 21.2C133.96 21.1573 134.008 21.136 134.062 21.136H135.39V18.896C135.39 18.8427 135.411 18.8 135.454 18.768C135.496 18.7253 135.544 18.704 135.598 18.704H136.894C136.958 18.704 137.006 18.7253 137.038 18.768C137.08 18.8 137.102 18.8427 137.102 18.896V21.136H138.638C138.691 21.136 138.734 21.1573 138.766 21.2C138.808 21.232 138.83 21.2747 138.83 21.328V22.592C138.83 22.6453 138.808 22.6933 138.766 22.736C138.734 22.768 138.691 22.784 138.638 22.784H137.102V26.912C137.102 27.6373 137.118 28.096 137.15 28.288C137.192 28.48 137.294 28.5973 137.454 28.64C137.614 28.6827 137.795 28.6933 137.998 28.672C138.136 28.6507 138.291 28.624 138.462 28.592C138.632 28.5493 138.782 28.5013 138.91 28.448C138.963 28.4267 139 28.4267 139.022 28.448C139.043 28.4587 139.064 28.5067 139.086 28.592L139.214 29.648C139.224 29.7227 139.198 29.7867 139.134 29.84ZM146.146 30C146.007 30 145.938 29.936 145.938 29.808V24.672C145.938 23.872 145.821 23.2907 145.586 22.928C145.362 22.5547 144.999 22.368 144.498 22.368C143.378 22.368 142.669 22.7947 142.37 23.648V29.808C142.37 29.936 142.306 30 142.178 30H140.866C140.813 30 140.765 29.984 140.722 29.952C140.69 29.9093 140.674 29.8613 140.674 29.808V17.2C140.674 17.1467 140.69 17.104 140.722 17.072C140.765 17.0293 140.813 17.008 140.866 17.008H142.178C142.231 17.008 142.274 17.0293 142.306 17.072C142.349 17.104 142.37 17.1467 142.37 17.2V21.504C142.637 21.28 142.946 21.0987 143.298 20.96C143.661 20.8107 144.055 20.736 144.482 20.736C146.594 20.736 147.65 22.0427 147.65 24.656V29.808C147.65 29.8613 147.629 29.9093 147.586 29.952C147.554 29.984 147.511 30 147.458 30H146.146ZM164.286 29.616C164.094 29.712 163.859 29.7973 163.582 29.872C163.304 29.936 163 29.9947 162.67 30.048C162.35 30.1013 162.019 30.1387 161.678 30.16C161.347 30.192 161.032 30.208 160.734 30.208C159.848 30.208 159.027 30.0693 158.27 29.792C157.523 29.5147 156.878 29.1093 156.334 28.576C155.79 28.0427 155.363 27.3867 155.054 26.608C154.744 25.8293 154.59 24.944 154.59 23.952C154.59 23.0453 154.734 22.2133 155.022 21.456C155.31 20.688 155.72 20.0267 156.254 19.472C156.787 18.9173 157.432 18.4853 158.19 18.176C158.947 17.8667 159.8 17.712 160.75 17.712C161.39 17.712 161.96 17.7493 162.462 17.824C162.963 17.888 163.438 17.9893 163.886 18.128C164.003 18.16 164.072 18.1973 164.094 18.24C164.115 18.272 164.12 18.3093 164.11 18.352L163.918 19.712C163.907 19.7867 163.88 19.84 163.838 19.872C163.795 19.904 163.715 19.8987 163.598 19.856C163.096 19.696 162.622 19.584 162.174 19.52C161.726 19.4453 161.246 19.408 160.734 19.408C160.094 19.408 159.512 19.52 158.99 19.744C158.467 19.9573 158.019 20.2667 157.646 20.672C157.272 21.0667 156.979 21.5413 156.766 22.096C156.563 22.6507 156.462 23.2693 156.462 23.952C156.462 24.688 156.563 25.344 156.766 25.92C156.979 26.4853 157.272 26.9653 157.646 27.36C158.03 27.744 158.483 28.0373 159.006 28.24C159.528 28.432 160.104 28.528 160.734 28.528C161.214 28.528 161.63 28.5067 161.982 28.464C162.334 28.4213 162.595 28.3573 162.766 28.272V25.056H160.126C160.062 25.056 160.008 25.04 159.966 25.008C159.934 24.9653 159.918 24.9173 159.918 24.864V23.584C159.918 23.52 159.939 23.4667 159.982 23.424C160.035 23.3813 160.088 23.36 160.142 23.36H164.238C164.398 23.36 164.499 23.3867 164.542 23.44C164.584 23.4933 164.606 23.6 164.606 23.76V29.04C164.606 29.2 164.574 29.3227 164.51 29.408C164.446 29.4933 164.371 29.5627 164.286 29.616ZM174.284 28.752C173.9 29.232 173.441 29.6 172.908 29.856C172.374 30.1013 171.772 30.224 171.1 30.224C170.417 30.224 169.814 30.1013 169.292 29.856C168.769 29.6107 168.332 29.2747 167.98 28.848C167.628 28.4213 167.361 27.9253 167.18 27.36C167.009 26.7947 166.924 26.192 166.924 25.552C166.924 24.912 167.009 24.3093 167.18 23.744C167.361 23.1787 167.628 22.688 167.98 22.272C168.332 21.8453 168.764 21.5093 169.276 21.264C169.798 21.0187 170.406 20.896 171.1 20.896C171.782 20.896 172.385 21.0187 172.908 21.264C173.43 21.5093 173.868 21.8453 174.22 22.272C174.572 22.688 174.833 23.1787 175.003 23.744C175.185 24.3093 175.276 24.912 175.276 25.552C175.276 26.1813 175.19 26.7733 175.02 27.328C174.849 27.872 174.604 28.3467 174.284 28.752ZM171.1 22.464C170.684 22.464 170.321 22.5547 170.012 22.736C169.713 22.9173 169.468 23.1573 169.276 23.456C169.084 23.744 168.94 24.0747 168.844 24.448C168.748 24.8107 168.7 25.1787 168.7 25.552C168.7 25.9253 168.748 26.2987 168.844 26.672C168.94 27.0347 169.084 27.3653 169.276 27.664C169.468 27.9627 169.713 28.2027 170.012 28.384C170.321 28.5653 170.684 28.656 171.1 28.656C171.516 28.656 171.873 28.5653 172.172 28.384C172.481 28.2027 172.732 27.9627 172.924 27.664C173.116 27.3653 173.26 27.0347 173.356 26.672C173.452 26.2987 173.5 25.9253 173.5 25.552C173.5 25.1893 173.452 24.8267 173.356 24.464C173.26 24.0907 173.116 23.76 172.924 23.472C172.732 23.1733 172.481 22.9333 172.172 22.752C171.873 22.56 171.516 22.464 171.1 22.464ZM183.987 28.752C183.603 29.232 183.144 29.6 182.611 29.856C182.077 30.1013 181.475 30.224 180.803 30.224C180.12 30.224 179.517 30.1013 178.995 29.856C178.472 29.6107 178.035 29.2747 177.683 28.848C177.331 28.4213 177.064 27.9253 176.883 27.36C176.712 26.7947 176.627 26.192 176.627 25.552C176.627 24.912 176.712 24.3093 176.883 23.744C177.064 23.1787 177.331 22.688 177.683 22.272C178.035 21.8453 178.467 21.5093 178.979 21.264C179.501 21.0187 180.109 20.896 180.803 20.896C181.485 20.896 182.088 21.0187 182.611 21.264C183.133 21.5093 183.571 21.8453 183.923 22.272C184.275 22.688 184.536 23.1787 184.707 23.744C184.888 24.3093 184.979 24.912 184.979 25.552C184.979 26.1813 184.893 26.7733 184.723 27.328C184.552 27.872 184.307 28.3467 183.987 28.752ZM180.803 22.464C180.387 22.464 180.024 22.5547 179.715 22.736C179.416 22.9173 179.171 23.1573 178.979 23.456C178.787 23.744 178.643 24.0747 178.547 24.448C178.451 24.8107 178.403 25.1787 178.403 25.552C178.403 25.9253 178.451 26.2987 178.547 26.672C178.643 27.0347 178.787 27.3653 178.979 27.664C179.171 27.9627 179.416 28.2027 179.715 28.384C180.024 28.5653 180.387 28.656 180.803 28.656C181.219 28.656 181.576 28.5653 181.875 28.384C182.184 28.2027 182.435 27.9627 182.627 27.664C182.819 27.3653 182.963 27.0347 183.059 26.672C183.155 26.2987 183.203 25.9253 183.203 25.552C183.203 25.1893 183.155 24.8267 183.059 24.464C182.963 24.0907 182.819 23.76 182.627 23.472C182.435 23.1733 182.184 22.9333 181.875 22.752C181.576 22.56 181.219 22.464 180.803 22.464ZM189.962 32.464C189.535 32.464 189.114 32.432 188.698 32.368C188.282 32.3147 187.871 32.2133 187.466 32.064C187.37 32.0107 187.3 31.968 187.258 31.936C187.226 31.904 187.21 31.8507 187.21 31.776L187.29 30.48C187.311 30.2773 187.418 30.224 187.61 30.32C187.972 30.5013 188.362 30.6347 188.778 30.72C189.204 30.816 189.604 30.864 189.978 30.864C190.671 30.864 191.22 30.6827 191.626 30.32C192.042 29.9573 192.266 29.4613 192.298 28.832C192.02 29.1307 191.695 29.3547 191.322 29.504C190.948 29.6533 190.58 29.728 190.218 29.728C189.684 29.728 189.188 29.6267 188.73 29.424C188.271 29.2107 187.876 28.9227 187.546 28.56C187.215 28.1867 186.954 27.744 186.762 27.232C186.58 26.72 186.49 26.16 186.49 25.552C186.49 23.9733 186.804 22.8053 187.434 22.048C188.074 21.2907 188.986 20.912 190.17 20.912C190.383 20.912 190.596 20.9387 190.81 20.992C191.034 21.0453 191.247 21.1147 191.45 21.2C191.652 21.2853 191.839 21.3867 192.01 21.504C192.18 21.6107 192.33 21.728 192.458 21.856L192.442 21.296C192.431 21.2107 192.436 21.152 192.458 21.12C192.479 21.088 192.543 21.072 192.65 21.072H193.914C194.042 21.072 194.106 21.152 194.106 21.312V27.92C194.106 29.36 193.754 30.4747 193.05 31.264C192.346 32.064 191.316 32.464 189.962 32.464ZM190.362 22.48C189.69 22.48 189.172 22.7253 188.81 23.216C188.458 23.7067 188.282 24.4853 188.282 25.552C188.282 25.9573 188.335 26.32 188.442 26.64C188.548 26.96 188.692 27.232 188.874 27.456C189.066 27.6693 189.279 27.8347 189.514 27.952C189.759 28.0693 190.015 28.128 190.282 28.128C190.58 28.128 190.858 28.0693 191.114 27.952C191.37 27.8347 191.594 27.664 191.786 27.44C191.978 27.216 192.127 26.944 192.234 26.624C192.351 26.304 192.41 25.936 192.41 25.52C192.41 24.5493 192.228 23.8027 191.866 23.28C191.503 22.7467 191.002 22.48 190.362 22.48ZM196.657 30C196.54 30 196.481 29.936 196.481 29.808V17.2C196.481 17.1467 196.497 17.104 196.529 17.072C196.572 17.0293 196.62 17.008 196.673 17.008H198.017C198.07 17.008 198.113 17.0293 198.145 17.072C198.188 17.104 198.209 17.1467 198.209 17.2V29.808C198.209 29.8613 198.188 29.9093 198.145 29.952C198.113 29.984 198.07 30 198.017 30H196.657ZM207.252 25.952C207.252 26.0373 207.225 26.1013 207.172 26.144C207.129 26.1867 207.081 26.208 207.028 26.208H201.764C201.817 26.9227 202.041 27.5093 202.436 27.968C202.831 28.416 203.369 28.64 204.052 28.64C204.404 28.64 204.804 28.5973 205.252 28.512C205.7 28.416 206.111 28.256 206.484 28.032C206.559 27.9893 206.607 27.9947 206.628 28.048C206.649 28.1013 206.66 28.1707 206.66 28.256V29.36C206.66 29.456 206.644 29.5307 206.612 29.584C206.58 29.6373 206.516 29.6907 206.42 29.744C206.1 29.9147 205.721 30.0373 205.284 30.112C204.857 30.1867 204.42 30.224 203.972 30.224C202.649 30.224 201.647 29.8293 200.964 29.04C200.292 28.24 199.956 27.072 199.956 25.536C199.956 24.96 200.031 24.3947 200.18 23.84C200.329 23.2853 200.553 22.7893 200.852 22.352C201.161 21.9147 201.551 21.5627 202.02 21.296C202.489 21.0293 203.044 20.896 203.684 20.896C204.335 20.896 204.884 21.0187 205.332 21.264C205.791 21.5093 206.164 21.84 206.452 22.256C206.74 22.672 206.948 23.1573 207.076 23.712C207.204 24.2667 207.268 24.8587 207.268 25.488C207.268 25.5627 207.263 25.648 207.252 25.744C207.252 25.84 207.252 25.9093 207.252 25.952ZM203.748 22.432C203.46 22.432 203.204 22.496 202.98 22.624C202.756 22.752 202.564 22.9173 202.404 23.12C202.244 23.3227 202.111 23.5573 202.004 23.824C201.908 24.0907 201.839 24.3573 201.796 24.624H205.46C205.46 24.4107 205.423 24.176 205.348 23.92C205.284 23.664 205.183 23.4293 205.044 23.216C204.905 22.992 204.729 22.8053 204.516 22.656C204.303 22.5067 204.047 22.432 203.748 22.432Z" fill="white"/>
</svg>
