<svg width="35" height="35" viewBox="0 0 35 35" fill="none" xmlns="http://www.w3.org/2000/svg">
<path d="M13.1248 2.9165C7.5042 2.9165 2.9165 7.5042 2.9165 13.1248C2.9165 18.7455 7.5042 23.3332 13.1248 23.3332C15.674 23.3332 18.003 22.3824 19.7956 20.8267L20.4165 21.4476V23.3332L29.1665 32.0832L32.0832 29.1665L23.3332 20.4165H21.4476L20.8267 19.7956C22.3824 18.003 23.3332 15.674 23.3332 13.1248C23.3332 7.5042 18.7455 2.9165 13.1248 2.9165ZM13.1248 5.83317C17.1692 5.83317 20.4165 9.08049 20.4165 13.1248C20.4165 17.1692 17.1692 20.4165 13.1248 20.4165C9.08049 20.4165 5.83317 17.1692 5.83317 13.1248C5.83317 9.08049 9.08049 5.83317 13.1248 5.83317Z" fill="#333333"/>
</svg>
